<?xml version="1.0" encoding="utf-8" standalone="yes"?>
<!DOCTYPE svg PUBLIC "-//W3C//DTD SVG 1.1//EN" "http://www.w3.org/Graphics/SVG/1.1/DTD/svg11.dtd">
<svg width="433" height="481" viewBox="0 0 433 481" style="fill:none;stroke:none;fill-rule:evenodd;clip-rule:evenodd;stroke-linecap:round;stroke-linejoin:round;stroke-miterlimit:1.5;" version="1.1" xmlns="http://www.w3.org/2000/svg" xmlns:xlink="http://www.w3.org/1999/xlink"><style id="fontImports">@import url("https://fonts.googleapis.com/css2?family=Roboto:wght@400;700&amp;display=block");</style><g id="items" style="isolation: isolate"><g id="blend" style="mix-blend-mode:normal"><g id="g-root-3.cu_sy_v3mm3dpuo2rl-fill" data-item-order="999895462" data-item-id="3.cu_sy_v3mm3dpuo2rl" data-item-class="Part Indexed Fill Stroke" data-item-index="3" data-renderer-id="0" transform="translate(254, 134)"><g id="3.cu_sy_v3mm3dpuo2rl-fill" stroke="none" fill="#f5fbe9"><g><path d="M 10 82C 10 42.2355 42.2355 10 82 10C 121.764 10 154 42.2355 154 82L 154 226L 166 226L 142 262L 118 226L 130 226L 130 82C 130 55.4903 108.5097 34 82 34C 55.4903 34 34 55.4903 34 82L 10 82Z"></path></g></g></g><g id="g-root-3.cu_sy_v3mm3dpuo2rl-fill" data-item-order="999895462" data-item-id="3.cu_sy_v3mm3dpuo2rl" data-item-class="Part Indexed Fill Stroke" data-item-index="3" data-renderer-id="0" transform="translate(254, 134)"><g id="3.cu_sy_v3mm3dpuo2rl-fill" stroke="none" fill="#f5fbe9"><g><path d="M 10 82C 10 42.2355 42.2355 10 82 10C 121.764 10 154 42.2355 154 82L 154 226L 166 226L 142 262L 118 226L 130 226L 130 82C 130 55.4903 108.5097 34 82 34C 55.4903 34 34 55.4903 34 82L 10 82Z"></path></g></g></g><g id="g-root-2.cu_sy_m7zluhpuo3ka-fill" data-item-order="999895466" data-item-id="2.cu_sy_m7zluhpuo3ka" data-item-class="Part Indexed Fill Stroke" data-item-index="2" data-renderer-id="0" transform="translate(134, 206)"><g id="2.cu_sy_m7zluhpuo3ka-fill" stroke="none" fill="#e9fbf3"><g><path d="M 34 130C 34 156.51 55.4903 178 82 178C 108.5097 178 130 156.51 130 130L 130 70L 130 10L 154 10L 154 70L 154 130C 154 169.764 121.764 202 82 202C 42.2355 202 10 169.764 10 130L 10 70L 34 70L 34 130Z"></path></g></g></g><g id="g-root-2.cu_sy_m7zluhpuo3ka-fill" data-item-order="999895466" data-item-id="2.cu_sy_m7zluhpuo3ka" data-item-class="Part Indexed Fill Stroke" data-item-index="2" data-renderer-id="0" transform="translate(134, 206)"><g id="2.cu_sy_m7zluhpuo3ka-fill" stroke="none" fill="#e9fbf3"><g><path d="M 34 130C 34 156.51 55.4903 178 82 178C 108.5097 178 130 156.51 130 130L 130 70L 130 10L 154 10L 154 70L 154 130C 154 169.764 121.764 202 82 202C 42.2355 202 10 169.764 10 130L 10 70L 34 70L 34 130Z"></path></g></g></g><g id="g-root-1.cu_sy_m7zluhpuo3kb-fill" data-item-order="999895470" data-item-id="1.cu_sy_m7zluhpuo3kb" data-item-class="Part Indexed Indexed_1 Fill Stroke" data-item-index="1" data-renderer-id="0" transform="translate(14, 194)"><g id="1.cu_sy_m7zluhpuo3kb-fill" stroke="none" fill="#e6efff"><g><path d="M 82 34C 55.4903 34 34 55.4903 34 82L 34 142L 34 202L 10 202L 10 142L 10 82C 10 42.2355 42.2355 10 82 10C 121.765 10 154 42.2355 154 82L 130 82C 130 55.4903 108.5097 34 82 34Z"></path></g></g></g><g id="g-root-1.cu_sy_m7zluhpuo3kb-fill" data-item-order="999895470" data-item-id="1.cu_sy_m7zluhpuo3kb" data-item-class="Part Indexed Indexed_1 Fill Stroke" data-item-index="1" data-renderer-id="0" transform="translate(14, 194)"><g id="1.cu_sy_m7zluhpuo3kb-fill" stroke="none" fill="#e6efff"><g><path d="M 82 34C 55.4903 34 34 55.4903 34 82L 34 142L 34 202L 10 202L 10 142L 10 82C 10 42.2355 42.2355 10 82 10C 121.765 10 154 42.2355 154 82L 130 82C 130 55.4903 108.5097 34 82 34Z"></path></g></g></g><g id="g-root-tx_erc20tok_hznvx5pua13h-fill" data-item-order="1000000000" data-item-id="tx_erc20tok_hznvx5pua13h" data-item-class="Label Stroke Title" data-item-index="none" data-renderer-id="0" transform="translate(62, 2)"><g id="tx_erc20tok_hznvx5pua13h-fill" stroke="none" fill="#484848"><g><text style="font: 20px Roboto, sans-serif; white-space: pre;" font-size="20px" font-family="Roboto, sans-serif"><tspan x="14.77" y="32.73" dominant-baseline="ideographic">ERC20 Token Approval Process</tspan></text></g></g></g><g id="g-root-tx_erc20tok_hznvx5pua13h-fill" data-item-order="1000000000" data-item-id="tx_erc20tok_hznvx5pua13h" data-item-class="Label Stroke Title" data-item-index="none" data-renderer-id="0" transform="translate(62, 2)"><g id="tx_erc20tok_hznvx5pua13h-fill" stroke="none" fill="#484848"><g><text style="font: 20px Roboto, sans-serif; white-space: pre;" font-size="20px" font-family="Roboto, sans-serif"><tspan x="14.77" y="32.73" dominant-baseline="ideographic">ERC20 Token Approval Process</tspan></text></g></g></g><g id="g-root-tx_tokentra_1464xg9pua1vm-fill" data-item-order="1000000000" data-item-id="tx_tokentra_1464xg9pua1vm" data-item-class="Label Stroke Indexed" data-item-index="3" data-renderer-id="0" transform="translate(254, 74.404296875)"><g id="tx_tokentra_1464xg9pua1vm-fill" stroke="none" fill="#484848"><g><text style="font: 20px Roboto, sans-serif; white-space: pre;" font-size="20px" font-family="Roboto, sans-serif"><tspan x="13.33" y="32.72" dominant-baseline="ideographic">Token Transfer </tspan><tspan x="36.03" y="56.73" dominant-baseline="ideographic">Execution</tspan></text></g></g></g><g id="g-root-tx_tokentra_1464xg9pua1vm-fill" data-item-order="1000000000" data-item-id="tx_tokentra_1464xg9pua1vm" data-item-class="Label Stroke Indexed" data-item-index="3" data-renderer-id="0" transform="translate(254, 74.404296875)"><g id="tx_tokentra_1464xg9pua1vm-fill" stroke="none" fill="#484848"><g><text style="font: 20px Roboto, sans-serif; white-space: pre;" font-size="20px" font-family="Roboto, sans-serif"><tspan x="13.33" y="32.72" dominant-baseline="ideographic">Token Transfer </tspan><tspan x="36.03" y="56.73" dominant-baseline="ideographic">Execution</tspan></text></g></g></g><g id="g-root-tx_tokenhol_qvaw61pua0as-fill" data-item-order="1000000000" data-item-id="tx_tokenhol_qvaw61pua0as" data-item-class="Label Stroke Indexed Indexed_1" data-item-index="1" data-renderer-id="0" transform="translate(2, 134.404296875)"><g id="tx_tokenhol_qvaw61pua0as-fill" stroke="none" fill="#484848"><g><text style="font: 20px Roboto, sans-serif; white-space: pre;" font-size="20px" font-family="Roboto, sans-serif"><tspan x="34.96" y="32.72" dominant-baseline="ideographic">Token Holder </tspan><tspan x="16.71" y="56.73" dominant-baseline="ideographic">Initiates Approval</tspan></text></g></g></g><g id="g-root-tx_tokenhol_qvaw61pua0as-fill" data-item-order="1000000000" data-item-id="tx_tokenhol_qvaw61pua0as" data-item-class="Label Stroke Indexed Indexed_1" data-item-index="1" data-renderer-id="0" transform="translate(2, 134.404296875)"><g id="tx_tokenhol_qvaw61pua0as-fill" stroke="none" fill="#484848"><g><text style="font: 20px Roboto, sans-serif; white-space: pre;" font-size="20px" font-family="Roboto, sans-serif"><tspan x="34.96" y="32.72" dominant-baseline="ideographic">Token Holder </tspan><tspan x="16.71" y="56.73" dominant-baseline="ideographic">Initiates Approval</tspan></text></g></g></g><g id="g-root-hous_dj7tjtpupiit-fill" data-item-order="1000000000" data-item-id="hous_dj7tjtpupiit" data-item-class="Icon Stroke Indexed InsideFill InsideColorFill" data-item-index="3" data-renderer-id="0" transform="translate(302, 182.404296875)"></g><g id="g-root-hous_dj7tjtpupiit-fill" data-item-order="1000000000" data-item-id="hous_dj7tjtpupiit" data-item-class="Icon Stroke Indexed InsideFill InsideColorFill" data-item-index="3" data-renderer-id="0" transform="translate(302, 182.404296875)"></g><g id="g-root-paym_1464xg9pua1vl-fill" data-item-order="1000000000" data-item-id="paym_1464xg9pua1vl" data-item-class="Icon Stroke Indexed Indexed_1 InsideFill InsideColorFill" data-item-index="1" data-renderer-id="0" transform="translate(62, 242.404296875)"></g><g id="g-root-paym_1464xg9pua1vl-fill" data-item-order="1000000000" data-item-id="paym_1464xg9pua1vl" data-item-class="Icon Stroke Indexed Indexed_1 InsideFill InsideColorFill" data-item-index="1" data-renderer-id="0" transform="translate(62, 242.404296875)"></g><g id="g-root-appr_mahlcppu8nid-fill" data-item-order="1000000000" data-item-id="appr_mahlcppu8nid" data-item-class="Icon Stroke Indexed InsideFill InsideColorFill" data-item-index="2" data-renderer-id="0" transform="translate(182, 302.404296875)"></g><g id="g-root-appr_mahlcppu8nid-fill" data-item-order="1000000000" data-item-id="appr_mahlcppu8nid" data-item-class="Icon Stroke Indexed InsideFill InsideColorFill" data-item-index="2" data-renderer-id="0" transform="translate(182, 302.404296875)"></g><g id="g-root-tx_smartcon_vahx7dpua2ob-fill" data-item-order="1000000000" data-item-id="tx_smartcon_vahx7dpua2ob" data-item-class="Label Stroke Indexed" data-item-index="2" data-renderer-id="0" transform="translate(122, 410.404296875)"><g id="tx_smartcon_vahx7dpua2ob-fill" stroke="none" fill="#484848"><g><text style="font: 20px Roboto, sans-serif; white-space: pre;" font-size="20px" font-family="Roboto, sans-serif"><tspan x="26.37" y="32.72" dominant-baseline="ideographic">Smart Contract </tspan><tspan x="12.57" y="56.73" dominant-baseline="ideographic">Receives Approval</tspan></text></g></g></g><g id="g-root-tx_smartcon_vahx7dpua2ob-fill" data-item-order="1000000000" data-item-id="tx_smartcon_vahx7dpua2ob" data-item-class="Label Stroke Indexed" data-item-index="2" data-renderer-id="0" transform="translate(122, 410.404296875)"><g id="tx_smartcon_vahx7dpua2ob-fill" stroke="none" fill="#484848"><g><text style="font: 20px Roboto, sans-serif; white-space: pre;" font-size="20px" font-family="Roboto, sans-serif"><tspan x="26.37" y="32.72" dominant-baseline="ideographic">Smart Contract </tspan><tspan x="12.57" y="56.73" dominant-baseline="ideographic">Receives Approval</tspan></text></g></g></g><g id="g-root-3.cu_sy_v3mm3dpuo2rl-stroke" data-item-order="999895462" data-item-id="3.cu_sy_v3mm3dpuo2rl" data-item-class="Part Indexed Fill Stroke" data-item-index="3" data-renderer-id="0" transform="translate(254, 134)"><g id="3.cu_sy_v3mm3dpuo2rl-stroke" fill="none" stroke-linecap="round" stroke-linejoin="round" stroke-miterlimit="4" stroke="#93c131" stroke-width="2"><g><path d="M 10 82C 10 42.2355 42.2355 10 82 10C 121.7645 10 154 42.2355 154 82L 154 226L 166 226L 142 262L 118 226L 130 226L 130 82C 130 55.4903 108.5097 34 82 34C 55.4903 34 34 55.4903 34 82L 10 82Z"></path></g></g></g><g id="g-root-3.cu_sy_v3mm3dpuo2rl-stroke" data-item-order="999895462" data-item-id="3.cu_sy_v3mm3dpuo2rl" data-item-class="Part Indexed Fill Stroke" data-item-index="3" data-renderer-id="0" transform="translate(254, 134)"><g id="3.cu_sy_v3mm3dpuo2rl-stroke" fill="none" stroke-linecap="round" stroke-linejoin="round" stroke-miterlimit="4" stroke="#93c131" stroke-width="2"><g><path d="M 10 82C 10 42.2355 42.2355 10 82 10C 121.7645 10 154 42.2355 154 82L 154 226L 166 226L 142 262L 118 226L 130 226L 130 82C 130 55.4903 108.5097 34 82 34C 55.4903 34 34 55.4903 34 82L 10 82Z"></path></g></g></g><g id="g-root-2.cu_sy_m7zluhpuo3ka-stroke" data-item-order="999895466" data-item-id="2.cu_sy_m7zluhpuo3ka" data-item-class="Part Indexed Fill Stroke" data-item-index="2" data-renderer-id="0" transform="translate(134, 206)"><g id="2.cu_sy_m7zluhpuo3ka-stroke" fill="none" stroke-linecap="round" stroke-linejoin="round" stroke-miterlimit="4" stroke="#3bc482" stroke-width="2"><g><path d="M 34 70L 34 130C 34 156.5097 55.4903 178 82 178C 108.5097 178 130 156.5097 130 130L 130 70L 130 10L 154 10L 154 70L 154 130C 154 169.7645 121.7645 202 82 202C 42.2355 202 10 169.7645 10 130L 10 70L 34 70Z"></path></g></g></g><g id="g-root-2.cu_sy_m7zluhpuo3ka-stroke" data-item-order="999895466" data-item-id="2.cu_sy_m7zluhpuo3ka" data-item-class="Part Indexed Fill Stroke" data-item-index="2" data-renderer-id="0" transform="translate(134, 206)"><g id="2.cu_sy_m7zluhpuo3ka-stroke" fill="none" stroke-linecap="round" stroke-linejoin="round" stroke-miterlimit="4" stroke="#3bc482" stroke-width="2"><g><path d="M 34 70L 34 130C 34 156.5097 55.4903 178 82 178C 108.5097 178 130 156.5097 130 130L 130 70L 130 10L 154 10L 154 70L 154 130C 154 169.7645 121.7645 202 82 202C 42.2355 202 10 169.7645 10 130L 10 70L 34 70Z"></path></g></g></g><g id="g-root-1.cu_sy_m7zluhpuo3kb-stroke" data-item-order="999895470" data-item-id="1.cu_sy_m7zluhpuo3kb" data-item-class="Part Indexed Indexed_1 Fill Stroke" data-item-index="1" data-renderer-id="0" transform="translate(14, 194)"><g id="1.cu_sy_m7zluhpuo3kb-stroke" fill="none" stroke-linecap="round" stroke-linejoin="round" stroke-miterlimit="4" stroke="#4682e3" stroke-width="2"><g><path d="M 34 82C 34 55.4903 55.4903 34 82 34C 108.5097 34 130 55.4903 130 82L 154 82C 154 42.2355 121.7645 10 82 10C 42.2355 10 10 42.2355 10 82L 10 142L 10 202L 34 202L 34 142L 34 82Z"></path></g></g></g><g id="g-root-1.cu_sy_m7zluhpuo3kb-stroke" data-item-order="999895470" data-item-id="1.cu_sy_m7zluhpuo3kb" data-item-class="Part Indexed Indexed_1 Fill Stroke" data-item-index="1" data-renderer-id="0" transform="translate(14, 194)"><g id="1.cu_sy_m7zluhpuo3kb-stroke" fill="none" stroke-linecap="round" stroke-linejoin="round" stroke-miterlimit="4" stroke="#4682e3" stroke-width="2"><g><path d="M 34 82C 34 55.4903 55.4903 34 82 34C 108.5097 34 130 55.4903 130 82L 154 82C 154 42.2355 121.7645 10 82 10C 42.2355 10 10 42.2355 10 82L 10 142L 10 202L 34 202L 34 142L 34 82Z"></path></g></g></g><g id="g-root-tx_erc20tok_hznvx5pua13h-stroke" data-item-order="1000000000" data-item-id="tx_erc20tok_hznvx5pua13h" data-item-class="Label Stroke Title" data-item-index="none" data-renderer-id="0" transform="translate(62, 2)"></g><g id="g-root-tx_erc20tok_hznvx5pua13h-stroke" data-item-order="1000000000" data-item-id="tx_erc20tok_hznvx5pua13h" data-item-class="Label Stroke Title" data-item-index="none" data-renderer-id="0" transform="translate(62, 2)"></g><g id="g-root-tx_tokentra_1464xg9pua1vm-stroke" data-item-order="1000000000" data-item-id="tx_tokentra_1464xg9pua1vm" data-item-class="Label Stroke Indexed" data-item-index="3" data-renderer-id="0" transform="translate(254, 74.404296875)"></g><g id="g-root-tx_tokentra_1464xg9pua1vm-stroke" data-item-order="1000000000" data-item-id="tx_tokentra_1464xg9pua1vm" data-item-class="Label Stroke Indexed" data-item-index="3" data-renderer-id="0" transform="translate(254, 74.404296875)"></g><g id="g-root-tx_tokenhol_qvaw61pua0as-stroke" data-item-order="1000000000" data-item-id="tx_tokenhol_qvaw61pua0as" data-item-class="Label Stroke Indexed Indexed_1" data-item-index="1" data-renderer-id="0" transform="translate(2, 134.404296875)"></g><g id="g-root-tx_tokenhol_qvaw61pua0as-stroke" data-item-order="1000000000" data-item-id="tx_tokenhol_qvaw61pua0as" data-item-class="Label Stroke Indexed Indexed_1" data-item-index="1" data-renderer-id="0" transform="translate(2, 134.404296875)"></g><g id="g-root-hous_dj7tjtpupiit-stroke" data-item-order="1000000000" data-item-id="hous_dj7tjtpupiit" data-item-class="Icon Stroke Indexed InsideFill InsideColorFill" data-item-index="3" data-renderer-id="0" transform="translate(302, 182.404296875)"><g id="hous_dj7tjtpupiit-stroke" fill="none" stroke-linecap="round" stroke-linejoin="round" stroke-miterlimit="4" stroke="#93c131" stroke-width="2"><g><path d="M 29 20.708L 29 27.708C 29 28.260284 28.552284 28.708 28 28.708L 16 28.708C 15.447716 28.708 15 28.260284 15 27.708L 15 20.708M 11 19.708L 20.734001 11.743999C 21.470558 11.141738 22.529442 11.141738 23.265999 11.743999L 33 19.708M 38 18.708L 43 18.708C 46.313709 18.708 49 21.394291 49 24.708L 49 32.708M 21 33.708L 21 42.708C 21 46.021709 23.686291 48.708 27 48.708L 33 48.708M 10 10M 44 27.708L 49 32.708L 54 27.708M 26 38.708L 21 33.708L 16 38.708M 37 46.708C 37 52.230846 41.477154 56.708 47 56.708C 52.522846 56.708 57 52.230846 57 46.708C 57 41.185154 52.522846 36.708 47 36.708C 41.477154 36.708 37 41.185154 37 46.708ZM 47 50.708L 47 52.708M 47 40.708L 47 42.708M 43 50.708L 49 50.708C 50.104568 50.708 51 49.812569 51 48.708C 51 47.603432 50.104568 46.708 49 46.708L 45 46.708C 43.895432 46.708 43 45.812569 43 44.708C 43 43.603432 43.895432 42.708 45 42.708L 51 42.708"></path></g></g></g><g id="g-root-hous_dj7tjtpupiit-stroke" data-item-order="1000000000" data-item-id="hous_dj7tjtpupiit" data-item-class="Icon Stroke Indexed InsideFill InsideColorFill" data-item-index="3" data-renderer-id="0" transform="translate(302, 182.404296875)"><g id="hous_dj7tjtpupiit-stroke" fill="none" stroke-linecap="round" stroke-linejoin="round" stroke-miterlimit="4" stroke="#93c131" stroke-width="2"><g><path d="M 29 20.708L 29 27.708C 29 28.260284 28.552284 28.708 28 28.708L 16 28.708C 15.447716 28.708 15 28.260284 15 27.708L 15 20.708M 11 19.708L 20.734001 11.743999C 21.470558 11.141738 22.529442 11.141738 23.265999 11.743999L 33 19.708M 38 18.708L 43 18.708C 46.313709 18.708 49 21.394291 49 24.708L 49 32.708M 21 33.708L 21 42.708C 21 46.021709 23.686291 48.708 27 48.708L 33 48.708M 10 10M 44 27.708L 49 32.708L 54 27.708M 26 38.708L 21 33.708L 16 38.708M 37 46.708C 37 52.230846 41.477154 56.708 47 56.708C 52.522846 56.708 57 52.230846 57 46.708C 57 41.185154 52.522846 36.708 47 36.708C 41.477154 36.708 37 41.185154 37 46.708ZM 47 50.708L 47 52.708M 47 40.708L 47 42.708M 43 50.708L 49 50.708C 50.104568 50.708 51 49.812569 51 48.708C 51 47.603432 50.104568 46.708 49 46.708L 45 46.708C 43.895432 46.708 43 45.812569 43 44.708C 43 43.603432 43.895432 42.708 45 42.708L 51 42.708"></path></g></g></g><g id="g-root-paym_1464xg9pua1vl-stroke" data-item-order="1000000000" data-item-id="paym_1464xg9pua1vl" data-item-class="Icon Stroke Indexed Indexed_1 InsideFill InsideColorFill" data-item-index="1" data-renderer-id="0" transform="translate(62, 242.404296875)"><g id="paym_1464xg9pua1vl-stroke" fill="none" stroke-linecap="round" stroke-linejoin="round" stroke-miterlimit="4" stroke="#4682e3" stroke-width="2"><g><path d="M 57 33L 49.799999 27.4C 47.171772 25.354952 43.431747 25.588223 41.078003 27.944L 40.512001 28.51M 11 26C 11 18.268013 17.268013 12 25 12M 15 26C 15 20.477154 19.477154 16 25 16M 19 26C 19 22.686291 21.686291 20 25 20M 47.599998 44.400002L 50.599998 41.414001C 51.380764 40.632999 51.380764 39.367001 50.599998 38.585999L 33.422001 21.414C 32.640999 20.633236 31.375 20.633236 30.594 21.414L 20.422001 31.586C 19.641235 32.367001 19.641235 33.632999 20.422001 34.414001L 37.599998 51.585999C 38.381001 52.366764 39.646999 52.366764 40.428001 51.585999L 42.514 49.5M 32.765999 30.927999L 30.809999 32.884003C 30.404705 33.289528 30.331497 33.92054 30.633179 34.408089C 30.93486 34.895641 31.532221 35.111725 32.075996 34.93L 34.875999 33.998001C 35.42028 33.816101 36.018166 34.032761 36.319565 34.521111C 36.620968 35.009457 36.546597 35.641022 36.139999 36.045998L 34.18 38M 31.351999 32.344002L 29.936001 30.927999M 37.007999 38L 35.594002 36.585999M 35.007999 49L 38.622002 45.386002M 57 56L 47.478001 52.826C 45.848896 52.282841 44.368526 51.368053 43.153999 50.153999L 39.200001 46.200001C 38.068756 45.070309 37.979061 43.266697 38.992641 42.030346C 40.006226 40.793991 41.792404 40.528252 43.121998 41.416L 50 46M 42.790001 41.218002L 48.007999 36"></path></g></g></g><g id="g-root-paym_1464xg9pua1vl-stroke" data-item-order="1000000000" data-item-id="paym_1464xg9pua1vl" data-item-class="Icon Stroke Indexed Indexed_1 InsideFill InsideColorFill" data-item-index="1" data-renderer-id="0" transform="translate(62, 242.404296875)"><g id="paym_1464xg9pua1vl-stroke" fill="none" stroke-linecap="round" stroke-linejoin="round" stroke-miterlimit="4" stroke="#4682e3" stroke-width="2"><g><path d="M 57 33L 49.799999 27.4C 47.171772 25.354952 43.431747 25.588223 41.078003 27.944L 40.512001 28.51M 11 26C 11 18.268013 17.268013 12 25 12M 15 26C 15 20.477154 19.477154 16 25 16M 19 26C 19 22.686291 21.686291 20 25 20M 47.599998 44.400002L 50.599998 41.414001C 51.380764 40.632999 51.380764 39.367001 50.599998 38.585999L 33.422001 21.414C 32.640999 20.633236 31.375 20.633236 30.594 21.414L 20.422001 31.586C 19.641235 32.367001 19.641235 33.632999 20.422001 34.414001L 37.599998 51.585999C 38.381001 52.366764 39.646999 52.366764 40.428001 51.585999L 42.514 49.5M 32.765999 30.927999L 30.809999 32.884003C 30.404705 33.289528 30.331497 33.92054 30.633179 34.408089C 30.93486 34.895641 31.532221 35.111725 32.075996 34.93L 34.875999 33.998001C 35.42028 33.816101 36.018166 34.032761 36.319565 34.521111C 36.620968 35.009457 36.546597 35.641022 36.139999 36.045998L 34.18 38M 31.351999 32.344002L 29.936001 30.927999M 37.007999 38L 35.594002 36.585999M 35.007999 49L 38.622002 45.386002M 57 56L 47.478001 52.826C 45.848896 52.282841 44.368526 51.368053 43.153999 50.153999L 39.200001 46.200001C 38.068756 45.070309 37.979061 43.266697 38.992641 42.030346C 40.006226 40.793991 41.792404 40.528252 43.121998 41.416L 50 46M 42.790001 41.218002L 48.007999 36"></path></g></g></g><g id="g-root-appr_mahlcppu8nid-stroke" data-item-order="1000000000" data-item-id="appr_mahlcppu8nid" data-item-class="Icon Stroke Indexed InsideFill InsideColorFill" data-item-index="2" data-renderer-id="0" transform="translate(182, 302.404296875)"><g id="appr_mahlcppu8nid-stroke" fill="none" stroke-linecap="round" stroke-linejoin="round" stroke-miterlimit="4" stroke="#3bc482" stroke-width="2"><g><path d="M 57 54L 55 50.132L 55 41C 55.084 37.444 50.838001 34.274002 47 31M 50.037998 45L 44.936001 39.785999C 44.316936 39.141663 43.400085 38.878433 42.533497 39.096237C 41.666908 39.314037 40.983467 39.979477 40.742607 40.839943C 40.501755 41.700409 40.740417 42.623959 41.368004 43.260002L 47 49L 47 52C 47.306267 53.789154 47.987881 55.493187 49 57M 11 14L 13 17.868L 13 27C 12.916 30.556 17.162001 33.725998 21 37M 17.962 23L 23.063999 28.214001C 23.683064 28.858339 24.599916 29.121571 25.466503 28.903767C 26.333092 28.685965 27.016537 28.020525 27.257393 27.160059C 27.498249 26.299595 27.259584 25.376043 26.632 24.740002L 21 19L 21 16C 20.693735 14.210846 20.012121 12.506812 19 11M 21 26.104L 21 56C 21 56.552284 21.447716 57 22 57L 44 57M 32 15L 25 15M 47 41.896L 47 30M 36 41L 25 41M 43 35L 25 35M 34 47L 25 47M 51 19C 51 23.418278 47.418278 27 43 27C 38.581722 27 35 23.418278 35 19C 35 14.581722 38.581722 11 43 11M 51 13L 43.708 20.292C 43.520393 20.480083 43.265656 20.585789 43 20.585789C 42.734344 20.585789 42.479607 20.480083 42.292 20.292L 40 18"></path></g></g></g><g id="g-root-appr_mahlcppu8nid-stroke" data-item-order="1000000000" data-item-id="appr_mahlcppu8nid" data-item-class="Icon Stroke Indexed InsideFill InsideColorFill" data-item-index="2" data-renderer-id="0" transform="translate(182, 302.404296875)"><g id="appr_mahlcppu8nid-stroke" fill="none" stroke-linecap="round" stroke-linejoin="round" stroke-miterlimit="4" stroke="#3bc482" stroke-width="2"><g><path d="M 57 54L 55 50.132L 55 41C 55.084 37.444 50.838001 34.274002 47 31M 50.037998 45L 44.936001 39.785999C 44.316936 39.141663 43.400085 38.878433 42.533497 39.096237C 41.666908 39.314037 40.983467 39.979477 40.742607 40.839943C 40.501755 41.700409 40.740417 42.623959 41.368004 43.260002L 47 49L 47 52C 47.306267 53.789154 47.987881 55.493187 49 57M 11 14L 13 17.868L 13 27C 12.916 30.556 17.162001 33.725998 21 37M 17.962 23L 23.063999 28.214001C 23.683064 28.858339 24.599916 29.121571 25.466503 28.903767C 26.333092 28.685965 27.016537 28.020525 27.257393 27.160059C 27.498249 26.299595 27.259584 25.376043 26.632 24.740002L 21 19L 21 16C 20.693735 14.210846 20.012121 12.506812 19 11M 21 26.104L 21 56C 21 56.552284 21.447716 57 22 57L 44 57M 32 15L 25 15M 47 41.896L 47 30M 36 41L 25 41M 43 35L 25 35M 34 47L 25 47M 51 19C 51 23.418278 47.418278 27 43 27C 38.581722 27 35 23.418278 35 19C 35 14.581722 38.581722 11 43 11M 51 13L 43.708 20.292C 43.520393 20.480083 43.265656 20.585789 43 20.585789C 42.734344 20.585789 42.479607 20.480083 42.292 20.292L 40 18"></path></g></g></g><g id="g-root-tx_smartcon_vahx7dpua2ob-stroke" data-item-order="1000000000" data-item-id="tx_smartcon_vahx7dpua2ob" data-item-class="Label Stroke Indexed" data-item-index="2" data-renderer-id="0" transform="translate(122, 410.404296875)"></g><g id="g-root-tx_smartcon_vahx7dpua2ob-stroke" data-item-order="1000000000" data-item-id="tx_smartcon_vahx7dpua2ob" data-item-class="Label Stroke Indexed" data-item-index="2" data-renderer-id="0" transform="translate(122, 410.404296875)"></g></g></g></svg>